<svg width="258" height="109" viewBox="0 0 258 109" fill="none" xmlns="http://www.w3.org/2000/svg">
<path d="M72.4881 5.91265C101.51 4.91733 130.495 6.68862 159.207 11.0419C186.44 15.1522 216.41 21.0984 240.855 34.0901C264.496 46.6578 239.9 64.3963 226.331 71.871C204.826 83.733 178.881 90.2685 154.839 95.621C110.231 105.511 44.6508 111.772 12.6902 71.4963C-3.10325 51.6083 11.3159 31.7961 31.0807 22.8952C47.8176 15.3209 66.6698 13.1287 84.6755 9.84893C115.048 4.33275 146.385 4.95837 176.818 10.397C192.718 13.2287 208.239 17.6762 223.549 22.7094C231.732 25.3674 251.933 31.6055 250.345 42.6543C249.581 48.001 242.398 51.9649 238.212 54.5605C230.937 59.0927 222.567 62.4237 214.647 65.7921C201.793 71.2316 188.405 75.5256 174.832 79.096C145.9 86.7095 115.718 89.4478 85.739 90.0304C81.9678 90.1039 82.6392 95.7231 86.4104 95.6496C139.626 94.6168 191.88 85.108 238.827 60.7542C251.237 54.3293 263.002 42.5815 250.752 30.244C244.4 23.8373 234.353 20.5081 226.021 17.6066C212.479 12.9005 198.546 9.1882 184.533 6.19239C138.21 -3.7545 89.3009 -0.0439828 44.093 12.3374C28.2687 16.6689 12.1078 23.973 3.78716 38.3298C-4.48483 52.6216 1.79298 69.4138 12.992 80.5207C41.4108 108.613 84.9862 110.556 122.805 106.628C145.902 104.258 168.644 98.7285 190.691 91.8808C208.253 86.4486 225.728 80.1629 240.772 69.7201C249.26 63.8183 259.236 54.4034 256.596 43.2071C253.054 28.2509 229.648 22.7995 217.219 18.7141C170.807 3.53547 120.461 -1.34458 71.8906 0.305576C68.1135 0.414563 68.785 6.03379 72.562 5.9248L72.4881 5.91265Z" fill="#E4570E"/>
</svg>