<svg width="365" height="53" viewBox="0 0 365 53" fill="none" xmlns="http://www.w3.org/2000/svg">
<path d="M270.108 2.60533C229.043 4.56346 187.517 7.77024 145.897 12.1226C106.425 16.2423 62.7217 21.4196 25.5604 29.3262C-10.3797 36.9742 21.2807 42.9585 39.1763 45.2142C67.5349 48.7964 103.196 49.6002 136.372 50.0266C197.937 50.7991 289.983 48.1895 342.902 27.3152C369.049 17.0065 352.24 9.23938 325.803 6.85253C303.423 4.81458 277.035 5.38729 252.053 5.39765C209.91 5.42246 165.253 8.30613 120.986 13.2923C97.8598 15.893 74.9721 19.1932 52.2741 22.741C40.1493 24.6227 10.2767 29.1214 10.4783 33.9885C10.5706 36.3441 20.0419 37.5414 25.5084 38.3684C35.0067 39.8151 46.2829 40.6276 56.9133 41.4943C74.1725 42.8886 92.4026 43.7203 111.03 44.2093C150.736 45.2529 193.125 43.9871 235.627 41.7628C240.974 41.4831 238.974 44.0811 233.628 44.3609C158.182 48.3098 85.6803 48.3441 23.4822 41.2217C7.03964 39.3447 -7.49719 35.0059 12.2089 28.4074C22.4284 24.9817 37.3277 22.6417 49.7108 20.6374C69.8337 17.3844 90.3277 14.5486 110.802 12.0303C178.493 3.6857 247.319 1.30561 309.272 3.15569C330.958 3.80215 352.569 5.76565 361.725 11.5707C370.824 17.3503 358.778 25.4686 340.794 31.4232C295.176 46.4913 232.879 50.9868 179.856 52.3483C147.469 53.1926 116.173 52.5782 86.1102 51.3097C62.1591 50.3095 38.4912 48.9157 19.0512 45.4395C8.08451 43.4738 -4.34451 40.0421 1.49157 34.7573C9.30767 27.6967 43.5893 23.2879 62.0147 20.4081C130.806 9.68904 203.272 3.30309 272 0.0189129C277.348 -0.245224 275.349 2.35283 270.001 2.61696L270.108 2.60533Z" fill="#E4570E"/>
</svg>