<svg width="363" height="56" viewBox="0 0 363 56" fill="none" xmlns="http://www.w3.org/2000/svg">
<path d="M268.543 53.1833C227.685 51.4568 186.378 48.3824 144.99 44.0684C105.737 39.9857 62.2829 34.7982 25.3669 26.5925C-10.3361 18.655 21.2374 11.8707 39.0731 9.25623C67.3368 5.1049 102.843 3.89238 135.872 3.11231C197.163 1.68521 288.765 3.62819 341.242 25.726C367.172 36.6387 350.365 45.2112 324.025 48.0496C301.728 50.4713 275.466 50.1042 250.598 50.3326C208.647 50.7101 164.221 48.0157 120.204 43.0407C97.2078 40.4462 74.4561 37.0918 51.8956 33.4675C39.8441 31.5461 10.1508 26.9609 10.3982 21.6882C10.5127 19.1364 19.9523 17.7489 25.4018 16.8009C34.8707 15.1431 46.1033 14.155 56.6935 13.1145C73.8874 11.439 92.0425 10.3634 110.59 9.65519C150.125 8.14417 192.308 9.10827 234.595 11.1093C239.915 11.3609 237.949 8.5666 232.63 8.31497C157.566 4.76228 85.3951 5.42065 23.4122 13.7304C7.02658 15.9209 -7.48562 20.7589 12.0673 27.7156C22.2074 31.3274 37.0164 33.7185 49.3238 35.7701C69.3238 39.0999 89.6972 41.9743 110.054 44.505C177.356 52.8923 245.846 54.8095 307.534 52.2116C329.127 51.3035 350.659 48.9699 359.829 42.5956C368.942 36.2494 357.028 27.5733 339.184 21.2975C293.918 5.41741 231.948 1.14672 179.18 0.18092C146.949 -0.4227 115.79 0.542928 85.8516 2.20497C62 3.51799 38.4266 5.25433 19.0419 9.20534C8.10629 11.4393 -4.29899 15.2748 1.45979 20.9419C9.17253 28.5131 43.2556 32.9586 61.5694 35.9005C129.945 46.8485 202.019 53.0689 270.402 55.9661C275.723 56.2008 273.758 53.4065 268.437 53.1718L268.543 53.1833Z" fill="#E4570E"/>
</svg>